<svg width="24" height="24" viewBox="0 0 24 24" fill="none" xmlns="http://www.w3.org/2000/svg">
<path d="M12.25 6.625C12.25 5.51248 12.5799 4.42495 13.198 3.49992C13.8161 2.57489 14.6946 1.85392 15.7224 1.42818C16.7502 1.00244 17.8812 0.891043 18.9724 1.10809C20.0635 1.32513 21.0658 1.86086 21.8525 2.64753C22.6391 3.4342 23.1749 4.43648 23.3919 5.52762C23.609 6.61876 23.4976 7.74976 23.0718 8.7776C22.6461 9.80543 21.9251 10.6839 21.0001 11.302C20.0751 11.9201 18.9875 12.25 17.875 12.25M12.25 6.625C12.25 5.51248 11.9201 4.42495 11.302 3.49992C10.6839 2.57489 9.80543 1.85392 8.7776 1.42818C7.74976 1.00244 6.61876 0.891043 5.52762 1.10809C4.43648 1.32513 3.4342 1.86086 2.64753 2.64753C1.86086 3.4342 1.32513 4.43648 1.10809 5.52762C0.891043 6.61876 1.00244 7.74976 1.42818 8.7776C1.85392 9.80543 2.57489 10.6839 3.49992 11.302C4.42495 11.9201 5.51248 12.25 6.625 12.25M12.25 6.625V8.5M17.875 12.25C18.9875 12.25 20.0751 12.5799 21.0001 13.198C21.9251 13.8161 22.6461 14.6946 23.0718 15.7224C23.4976 16.7502 23.609 17.8812 23.3919 18.9724C23.1749 20.0635 22.6391 21.0658 21.8525 21.8525C21.0658 22.6391 20.0635 23.1749 18.9724 23.3919C17.8812 23.609 16.7502 23.4976 15.7224 23.0718C14.6946 22.6461 13.8161 21.9251 13.198 21.0001C12.5799 20.0751 12.25 18.9875 12.25 17.875M17.875 12.25H16M6.625 12.25C5.51248 12.25 4.42495 12.5799 3.49992 13.198C2.57489 13.8161 1.85392 14.6946 1.42818 15.7224C1.00244 16.7502 0.891043 17.8812 1.10809 18.9724C1.32513 20.0635 1.86086 21.0658 2.64753 21.8525C3.4342 22.6391 4.43648 23.1749 5.52762 23.3919C6.61876 23.609 7.74976 23.4976 8.7776 23.0718C9.80543 22.6461 10.6839 21.9251 11.302 21.0001C11.9201 20.0751 12.25 18.9875 12.25 17.875M6.625 12.25H8.5M12.25 8.5C10.1789 8.5 8.5 10.1789 8.5 12.25M12.25 8.5C14.3211 8.5 16 10.1789 16 12.25M12.25 17.875V16M8.5 12.25C8.5 14.3211 10.1789 16 12.25 16M16 12.25C16 14.3211 14.3211 16 12.25 16M7.25 17.25L9.125 15.375M15.375 9.125L17.25 7.25M7.25 7.25L9.125 9.125M15.375 15.375L17.25 17.25" stroke="#61556D" stroke-linecap="round" stroke-linejoin="round"/>
</svg>
